<svg width="68" height="68" viewBox="0 0 68 68" fill="none" xmlns="http://www.w3.org/2000/svg">
<rect width="68" height="68" rx="34" fill="#FF3495"/>
<path d="M42.4833 39.4792L37.5305 34.5084L42.4833 29.5376C42.5782 29.4411 42.6314 29.3111 42.6314 29.1756C42.6314 29.04 42.5782 28.91 42.4833 28.8135L40.1436 26.4653C40.048 26.3694 39.9182 26.3154 39.7829 26.3154C39.6477 26.3154 39.5179 26.3694 39.4222 26.4653L34.4694 31.4362L29.5166 26.4653C29.4209 26.3694 29.2912 26.3154 29.1559 26.3154C29.0206 26.3154 28.8909 26.3694 28.7952 26.4653L26.4555 28.8135C26.3599 28.9096 26.3062 29.0398 26.3062 29.1756C26.3062 29.3113 26.3599 29.4415 26.4555 29.5376L31.4083 34.5084L26.4555 39.4792C26.3599 39.5753 26.3062 39.7055 26.3062 39.8413C26.3062 39.977 26.3599 40.1072 26.4555 40.2033L28.7952 42.5515C28.8909 42.6475 29.0206 42.7014 29.1559 42.7014C29.2912 42.7014 29.4209 42.6475 29.5166 42.5515L34.4694 37.5806L39.4222 42.5515C39.5179 42.6475 39.6477 42.7014 39.7829 42.7014C39.9182 42.7014 40.048 42.6475 40.1436 42.5515L42.4833 40.2033C42.579 40.1072 42.6327 39.977 42.6327 39.8413C42.6327 39.7055 42.579 39.5753 42.4833 39.4792Z" fill="black"/>
<path fill-rule="evenodd" clip-rule="evenodd" d="M32.4285 9C19.3508 9.7936 9 20.6878 9 33.9964C9 47.3051 19.3508 58.1992 32.4285 58.9929V54.9839C21.5735 54.197 13 45.1074 13 33.9964C13 22.8854 21.5735 13.7959 32.4285 13.009V9ZM36.5101 54.8848C46.8772 53.6215 54.9184 44.757 54.9184 33.9964C54.9184 23.2359 46.8772 14.3713 36.5101 13.108V9.08284C49.1018 10.365 58.9184 21.0358 58.9184 33.9964C58.9184 46.957 49.1018 57.6278 36.5101 58.91V54.8848Z" fill="black"/>
</svg>
