<svg width="68" height="68" viewBox="0 0 68 68" fill="none" xmlns="http://www.w3.org/2000/svg">
<rect width="68" height="68" rx="34" fill="#00BFFF"/>
<path d="M34.4695 44.6894L32.9899 43.2922C27.7348 38.349 24.2654 35.0782 24.2654 31.0876C24.2654 27.8169 26.7348 25.2659 29.8776 25.2659C31.6531 25.2659 33.3572 26.1233 34.4695 27.4676C35.5817 26.1233 37.2858 25.2659 39.0613 25.2659C42.2042 25.2659 44.6735 27.8169 44.6735 31.0876C44.6735 35.0782 41.2042 38.349 35.9491 43.2922L34.4695 44.6894Z" fill="black"/>
<path fill-rule="evenodd" clip-rule="evenodd" d="M32.4286 9C19.3538 9.79219 9 20.6654 9 33.9554C9 47.2453 19.3538 58.1185 32.4286 58.9107V54.9018C21.5707 54.1164 13 45.0416 13 33.9554C13 22.8691 21.5707 13.7943 32.4286 13.0089V9ZM36.5102 54.8029C46.8798 53.5419 54.9184 44.6919 54.9184 33.9554C54.9184 23.2188 46.8798 14.3688 36.5102 13.1078V9.08273C49.0992 10.3627 58.9184 21.0131 58.9184 33.9554C58.9184 46.8976 49.0992 57.548 36.5102 58.828V54.8029Z" fill="black"/>
</svg>
