<svg width="36" height="36" viewBox="0 0 36 36" fill="none" xmlns="http://www.w3.org/2000/svg">
<rect width="35.8097" height="35.8097" rx="17.9048" fill="white"/>
<path fill-rule="evenodd" clip-rule="evenodd" d="M17.0773 4.73975C10.1918 5.1568 4.73926 10.8828 4.73926 17.8816C4.73926 24.8803 10.1918 30.6064 17.0773 31.0234V28.9123C11.3593 28.4988 6.84571 23.7198 6.84571 17.8816C6.84571 12.0433 11.3593 7.26436 17.0773 6.85089V4.73975ZM19.2268 28.8601C24.6874 28.196 28.9205 23.5355 28.9205 17.8816C28.9205 12.2276 24.6874 7.56718 19.2268 6.90301V4.78336C25.8562 5.45755 31.0269 11.0661 31.0269 17.8816C31.0269 24.697 25.8562 30.3056 19.2268 30.9798V28.8601Z" fill="#FF3495"/>
<path d="M22.7056 13.2886C22.695 13.1793 22.6441 13.0778 22.5628 13.0039C22.4815 12.9301 22.3757 12.8891 22.2659 12.8889H13.0047V12.8901C12.8971 12.8931 12.7944 12.9352 12.7157 13.0086C12.637 13.082 12.5877 13.1815 12.5772 13.2886H12.5728V20.7062H12.5817C12.6018 20.8045 12.6545 20.893 12.7314 20.9574C12.8082 21.0218 12.9046 21.0583 13.0048 21.0609V21.0621H14.5273V21.95C14.5272 22.0451 14.5578 22.1378 14.6144 22.2143C14.671 22.2908 14.7507 22.3471 14.8417 22.3749C14.9327 22.4027 15.0303 22.4005 15.12 22.3686C15.2097 22.3368 15.2867 22.277 15.3398 22.198L16.4759 21.062H22.2659C22.3683 21.062 22.4677 21.0266 22.547 20.9618C22.6264 20.8969 22.6808 20.8066 22.7011 20.7061H22.7101V13.2886H22.7056Z" fill="#FF3495"/>
</svg>
