<svg width="36" height="37" viewBox="0 0 36 37" fill="none" xmlns="http://www.w3.org/2000/svg">
<rect y="0.619385" width="35.8097" height="35.8097" rx="17.9048" fill="white"/>
<path fill-rule="evenodd" clip-rule="evenodd" d="M17.0773 5.35913C10.1918 5.77618 4.73926 11.5022 4.73926 18.501C4.73926 25.4997 10.1918 31.2257 17.0773 31.6428V29.5316C11.3593 29.1182 6.84571 24.3392 6.84571 18.501C6.84571 12.6627 11.3593 7.88375 17.0773 7.47028V5.35913ZM19.2268 29.4795C24.6874 28.8154 28.9205 24.1549 28.9205 18.501C28.9205 12.847 24.6874 8.18656 19.2268 7.52239V5.40274C25.8562 6.07693 31.0269 11.6855 31.0269 18.501C31.0269 25.3164 25.8562 30.925 19.2268 31.5992V29.4795Z" fill="black"/>
<path d="M22.7058 13.908C22.6952 13.7987 22.6443 13.6972 22.5631 13.6233C22.4818 13.5494 22.3759 13.5084 22.2661 13.5083H13.005V13.5095C12.8974 13.5125 12.7946 13.5546 12.7159 13.628C12.6372 13.7013 12.588 13.8009 12.5775 13.908H12.573V21.3256H12.582C12.602 21.4238 12.6548 21.5124 12.7316 21.5768C12.8085 21.6412 12.9049 21.6777 13.0051 21.6803V21.6815H14.5275V22.5693C14.5275 22.6645 14.558 22.7572 14.6146 22.8337C14.6712 22.9102 14.7509 22.9665 14.8419 22.9943C14.933 23.0221 15.0305 23.0199 15.1202 22.988C15.2099 22.9562 15.287 22.8964 15.3401 22.8174L16.4761 21.6813H22.2661C22.3686 21.6814 22.4679 21.646 22.5473 21.5811C22.6266 21.5163 22.6811 21.4259 22.7013 21.3255H22.7103V13.908H22.7058Z" fill="black"/>
</svg>
