<svg width="36" height="37" viewBox="0 0 36 37" fill="none" xmlns="http://www.w3.org/2000/svg">
<rect y="0.80957" width="35.8097" height="35.8097" rx="17.9048" fill="white"/>
<path fill-rule="evenodd" clip-rule="evenodd" d="M17.0773 5.54907C10.1918 5.96612 4.73926 11.6922 4.73926 18.6909C4.73926 25.6896 10.1918 31.4157 17.0773 31.8327V29.7216C11.3593 29.3081 6.84571 24.5292 6.84571 18.6909C6.84571 12.8527 11.3593 8.07369 17.0773 7.66022V5.54907ZM19.2268 29.6695C24.6874 29.0053 28.9205 24.3448 28.9205 18.6909C28.9205 13.037 24.6874 8.37651 19.2268 7.71233V5.59268C25.8562 6.26688 31.0269 11.8754 31.0269 18.6909C31.0269 25.5064 25.8562 31.1149 19.2268 31.7891V29.6695Z" fill="black"/>
<path d="M17.9048 13.4482C20.5221 13.4482 22.6443 15.5773 22.6443 18.2041V22.9273H13.1653V18.2041C13.1653 15.5773 15.2875 13.4482 17.9048 13.4482ZM16.5883 23.4539H19.2213C19.2213 23.8031 19.0826 24.1379 18.8357 24.3848C18.5888 24.6317 18.254 24.7704 17.9048 24.7704C17.5556 24.7704 17.2208 24.6317 16.9739 24.3848C16.727 24.1379 16.5883 23.8031 16.5883 23.4539Z" fill="black"/>
</svg>
