<svg width="36" height="36" viewBox="0 0 36 36" fill="none" xmlns="http://www.w3.org/2000/svg">
<rect width="35.8097" height="35.8097" rx="17.9048" fill="white"/>
<path fill-rule="evenodd" clip-rule="evenodd" d="M17.0773 4.7395C10.1918 5.15655 4.73926 10.8826 4.73926 17.8813C4.73926 24.8801 10.1918 30.6061 17.0773 31.0232V28.912C11.3593 28.4985 6.84571 23.7196 6.84571 17.8813C6.84571 12.0431 11.3593 7.26412 17.0773 6.85065V4.7395ZM19.2268 28.8599C24.6874 28.1957 28.9205 23.5353 28.9205 17.8813C28.9205 12.2274 24.6874 7.56694 19.2268 6.90276V4.78311C25.8562 5.4573 31.0269 11.0659 31.0269 17.8813C31.0269 24.6968 25.8562 30.3054 19.2268 30.9796V28.8599Z" fill="#FF3495"/>
<path d="M17.9046 12.6387C20.5218 12.6387 22.6441 14.7678 22.6441 17.3945V22.1177H13.165V17.3945C13.165 14.7678 15.2873 12.6387 17.9046 12.6387ZM16.588 22.6443H19.2211C19.2211 22.9935 19.0824 23.3284 18.8355 23.5752C18.5886 23.8221 18.2537 23.9609 17.9046 23.9609C17.5554 23.9609 17.2205 23.8221 16.9736 23.5752C16.7267 23.3284 16.588 22.9935 16.588 22.6443Z" fill="#FF3495"/>
</svg>
