<svg width="36" height="36" viewBox="0 0 36 36" fill="none" xmlns="http://www.w3.org/2000/svg">
<rect width="35.8097" height="35.8097" rx="17.9048" fill="white"/>
<path fill-rule="evenodd" clip-rule="evenodd" d="M17.077 4.74194C10.1919 5.15938 4.73975 10.8853 4.73975 17.8837C4.73975 24.8822 10.1919 30.6081 17.077 31.0255V28.9143C11.3594 28.5005 6.8462 23.7217 6.8462 17.8837C6.8462 12.0457 11.3594 7.26694 17.077 6.8531V4.74194ZM19.2265 28.8624C24.6875 28.1986 28.921 23.5379 28.921 17.8837C28.921 12.2295 24.6875 7.56889 19.2265 6.90506V4.78543C25.8563 5.45926 31.0274 11.068 31.0274 17.8837C31.0274 24.6995 25.8563 30.3082 19.2265 30.982V28.8624Z" fill="#FF3495"/>
<path d="M18.2857 17.5237C17.4476 17.5237 16.7301 17.2253 16.1333 16.6285C15.5365 16.0317 15.2381 15.3142 15.2381 14.4761C15.2381 13.638 15.5365 12.9205 16.1333 12.3237C16.7301 11.7269 17.4476 11.4285 18.2857 11.4285C19.1238 11.4285 19.8413 11.7269 20.4381 12.3237C21.0349 12.9205 21.3333 13.638 21.3333 14.4761C21.3333 15.3142 21.0349 16.0317 20.4381 16.6285C19.8413 17.2253 19.1238 17.5237 18.2857 17.5237ZM12.1904 23.619V21.4857C12.1904 21.0539 12.3017 20.6572 12.5241 20.2956C12.7466 19.9339 13.0417 19.6576 13.4095 19.4666C14.1968 19.0729 14.9968 18.7778 15.8095 18.5813C16.6222 18.3847 17.4476 18.2861 18.2857 18.2856C19.1238 18.2851 19.9492 18.3837 20.7619 18.5813C21.5746 18.7788 22.3746 19.074 23.1619 19.4666C23.5302 19.6571 23.8255 19.9334 24.048 20.2956C24.2705 20.6577 24.3815 21.0544 24.381 21.4857V23.619H12.1904Z" fill="#FF3495"/>
</svg>
