<svg width="36" height="36" viewBox="0 0 36 36" fill="none" xmlns="http://www.w3.org/2000/svg">
<rect width="35.8097" height="35.8097" rx="17.9048" fill="white"/>
<path fill-rule="evenodd" clip-rule="evenodd" d="M17.0773 4.7395C10.1918 5.15655 4.73926 10.8826 4.73926 17.8813C4.73926 24.8801 10.1918 30.6061 17.0773 31.0232V28.912C11.3593 28.4985 6.84571 23.7196 6.84571 17.8813C6.84571 12.0431 11.3593 7.26412 17.0773 6.85065V4.7395ZM19.2268 28.8599C24.6874 28.1957 28.9205 23.5353 28.9205 17.8813C28.9205 12.2274 24.6874 7.56694 19.2268 6.90276V4.78311C25.8562 5.4573 31.0269 11.0659 31.0269 17.8813C31.0269 24.6968 25.8562 30.3054 19.2268 30.9796V28.8599Z" fill="black"/>
<path d="M18.2852 17.5237C17.4471 17.5237 16.7296 17.2253 16.1328 16.6285C15.536 16.0317 15.2376 15.3142 15.2376 14.4761C15.2376 13.638 15.536 12.9205 16.1328 12.3237C16.7296 11.7269 17.4471 11.4285 18.2852 11.4285C19.1233 11.4285 19.8408 11.7269 20.4376 12.3237C21.0344 12.9205 21.3328 13.638 21.3328 14.4761C21.3328 15.3142 21.0344 16.0317 20.4376 16.6285C19.8408 17.2253 19.1233 17.5237 18.2852 17.5237ZM12.1899 23.619V21.4857C12.1899 21.0539 12.3012 20.6572 12.5237 20.2956C12.7461 19.9339 13.0412 19.6576 13.409 19.4666C14.1963 19.0729 14.9963 18.7778 15.809 18.5813C16.6217 18.3847 17.4471 18.2861 18.2852 18.2856C19.1233 18.2851 19.9487 18.3837 20.7614 18.5813C21.5741 18.7788 22.3741 19.074 23.1614 19.4666C23.5297 19.6571 23.825 19.9334 24.0475 20.2956C24.27 20.6577 24.381 21.0544 24.3805 21.4857V23.619H12.1899Z" fill="black"/>
</svg>
