<svg width="68" height="68" viewBox="0 0 68 68" fill="none" xmlns="http://www.w3.org/2000/svg">
<rect width="68" height="68" rx="34" fill="#A7FC00"/>
<path fill-rule="evenodd" clip-rule="evenodd" d="M32.4286 9C19.3538 9.79219 9 20.6654 9 33.9554C9 47.2453 19.3538 58.1185 32.4286 58.9107V54.9018C21.5707 54.1164 13 45.0416 13 33.9554C13 22.8691 21.5707 13.7943 32.4286 13.0089V9ZM36.5102 54.8029C46.8798 53.5419 54.9184 44.6919 54.9184 33.9554C54.9184 23.2188 46.8798 14.3688 36.5102 13.1078V9.08273C49.0992 10.3627 58.9184 21.0131 58.9184 33.9554C58.9184 46.8976 49.0992 57.548 36.5102 58.828V54.8029Z" fill="black"/>
<path d="M45.7199 36.6001L42.6132 37.4267L39.9465 35.9201V32.0801L42.6132 30.5734L45.7199 31.4001L46.4132 28.8267L44.0532 28.2001L44.6665 25.8401L42.0932 25.1467L41.2665 28.2534L38.5999 29.7601L35.3332 27.8401V24.8267L37.6132 22.5467L35.7199 20.6667L33.9999 22.3867L32.2799 20.6667L30.3865 22.5467L32.6665 24.8267V27.8401L29.3332 29.7601L26.6665 28.2534L25.8932 25.1467L23.3332 25.8401L23.9599 28.2001L21.5999 28.8267L22.2932 31.4001L25.3999 30.5734L28.0665 32.0801V35.9334L25.3999 37.4401L22.2932 36.6134L21.5999 39.1867L23.9599 39.8134L23.3332 42.1601L25.9065 42.8534L26.7332 39.7467L29.3999 38.2401L32.6665 40.1601V43.1734L30.3865 45.4534L32.2799 47.3334L33.9999 45.6134L35.7199 47.3334L37.5999 45.4534L35.3332 43.1734V40.1601L38.6665 38.2267L41.3332 39.7334L42.1599 42.8401L44.6665 42.1601L44.0399 39.8001L46.3999 39.1734L45.7199 36.6001ZM30.6665 32.0801L33.9999 30.1467L37.3332 32.0801V35.9201L33.9999 37.8534L30.6665 35.9201V32.0801Z" fill="black"/>
</svg>
